<svg id="Layer_1" data-name="Layer 1" xmlns="http://www.w3.org/2000/svg" viewBox="0 0 240 240"><defs><style>.cls-1{fill:#99f;}.cls-2{fill:#339;}.cls-3{fill:none;}</style></defs><title>logo tekku 240x240</title><rect class="cls-1" x="56.47" y="13.54" width="128.11" height="42.69" rx="8.19" ry="8.19"/><path class="cls-2" d="M184.59,106.94v26.3a8.19,8.19,0,0,1-8.19,8.19H150.09a8.19,8.19,0,0,0-8.19,8.19v58.13a8.58,8.58,0,0,1-.15,1.6,21.36,21.36,0,0,1-21,17.22H64.66a8.19,8.19,0,0,1-8.19-8.19V192.14A8.19,8.19,0,0,1,64.66,184H91a8.19,8.19,0,0,0,8.19-8.19V149.62A8.19,8.19,0,0,0,91,141.43H64.66a8.19,8.19,0,0,1-8.19-8.19v-26.3a8.19,8.19,0,0,1,8.19-8.19H176.4A8.19,8.19,0,0,1,184.59,106.94Z"/><path class="cls-3" d="M142.15,205.22a20.43,20.43,0,0,1-.25,3.24V202A20.3,20.3,0,0,1,142.15,205.22Z"/></svg>